<svg xmlns="http://www.w3.org/2000/svg" viewBox="0 0 2000 1000"><mask id="b" width="2000" height="1000" x="0" y="0"><path fill="url(#a)" d="M0 0h2000v1000H0z"/></mask><path fill="#22212d" d="M0 0h2000v1000H0z"/><g style="transform-origin:center center" stroke="#302c45" stroke-width="2.6" mask="url(#b)"><path fill="#302c45d1" stroke-width="3.38" d="M0 0h113.1v113.1H0z"/><path fill="none" stroke-width="3.38" d="M113.1 0h113.1v113.1H113.1z"/><path fill="#302c45c4" stroke-width="3.38" d="M226.2 0h113.1v113.1H226.2z"/><path fill="none" stroke-width="3.38" d="M339.3 0h113.1v113.1H339.3zM452.4 0h113.1v113.1H452.4zM565.5 0h113.1v113.1H565.5zM678.6 0h113.1v113.1H678.6zM791.7 0h113.1v113.1H791.7z"/><path fill="none" stroke-width="3.38" d="M904.8 0h113.1v113.1H904.8zM1017.9 0H1131v113.1h-113.1zM1131 0h113.1v113.1H1131z"/><path fill="#302c45e2" stroke-width="3.38" d="M1244.1 0h113.1v113.1h-113.1z"/><path fill="none" stroke-width="3.38" d="M1357.2 0h113.1v113.1h-113.1z"/><path fill="#302c45b2" stroke-width="3.38" d="M1470.3 0h113.1v113.1h-113.1z"/><path fill="#302c45cb" stroke-width="3.38" d="M1583.4 0h113.1v113.1h-113.1z"/><path fill="none" stroke-width="3.38" d="M1696.5 0h113.1v113.1h-113.1zM1809.6 0h113.1v113.1h-113.1zM1922.7 0h113.1v113.1h-113.1zM2035.8 0h113.1v113.1h-113.1zM2148.9 0H2262v113.1h-113.1zM2262 0h113.1v113.1H2262zM2375.1 0h113.1v113.1h-113.1zM2488.2 0h113.1v113.1h-113.1z"/><path fill="#302c45c1" stroke-width="3.38" d="M0 113.1h113.1v113.1H0z"/><path fill="#302c4519" stroke-width="3.38" d="M113.1 113.1h113.1v113.1H113.1z"/><path fill="none" stroke-width="3.38" d="M226.2 113.1h113.1v113.1H226.2z"/><path fill="#302c4573" stroke-width="3.38" d="M339.3 113.1h113.1v113.1H339.3z"/><path fill="none" stroke-width="3.38" d="M452.4 113.1h113.1v113.1H452.4zM565.5 113.1h113.1v113.1H565.5zM678.6 113.1h113.1v113.1H678.6z"/><path fill="#302c4542" stroke-width="3.38" d="M791.7 113.1h113.1v113.1H791.7z"/><path fill="none" stroke-width="3.38" d="M904.8 113.1h113.1v113.1H904.8zM1017.9 113.1H1131v113.1h-113.1zM1131 113.1h113.1v113.1H1131zM1244.1 113.1h113.1v113.1h-113.1z"/><path fill="#302c45a9" stroke-width="3.38" d="M1357.2 113.1h113.1v113.1h-113.1z"/><path fill="none" stroke-width="3.38" d="M1470.3 113.1h113.1v113.1h-113.1z"/><path fill="#302c45d0" stroke-width="3.38" d="M1583.4 113.1h113.1v113.1h-113.1z"/><path fill="none" stroke-width="3.38" d="M1696.5 113.1h113.1v113.1h-113.1zM1809.6 113.1h113.1v113.1h-113.1zM1922.7 113.1h113.1v113.1h-113.1z"/><path fill="#302c4572" stroke-width="3.38" d="M2035.8 113.1h113.1v113.1h-113.1z"/><path fill="none" stroke-width="3.38" d="M2148.9 113.1H2262v113.1h-113.1zM2262 113.1h113.1v113.1H2262zM2375.1 113.1h113.1v113.1h-113.1z"/><path fill="#302c4545" stroke-width="3.38" d="M2488.2 113.1h113.1v113.1h-113.1z"/><path fill="none" stroke-width="3.38" d="M0 226.2h113.1v113.1H0zM113.1 226.2h113.1v113.1H113.1zM226.2 226.2h113.1v113.1H226.2zM339.3 226.2h113.1v113.1H339.3zM452.4 226.2h113.1v113.1H452.4zM565.5 226.2h113.1v113.1H565.5zM678.6 226.2h113.1v113.1H678.6zM791.7 226.2h113.1v113.1H791.7z"/><path fill="none" stroke-width="3.38" d="M904.8 226.2h113.1v113.1H904.8z"/><path fill="#302c45bf" stroke-width="3.38" d="M1017.9 226.2H1131v113.1h-113.1z"/><path fill="none" stroke-width="3.38" d="M1131 226.2h113.1v113.1H1131z"/><path fill="#302c452c" stroke-width="3.38" d="M1244.1 226.2h113.1v113.1h-113.1z"/><path fill="none" stroke-width="3.38" d="M1357.2 226.2h113.1v113.1h-113.1z"/><path fill="#302c453c" stroke-width="3.38" d="M1470.3 226.2h113.1v113.1h-113.1z"/><path fill="#302c4502" stroke-width="3.38" d="M1583.4 226.2h113.1v113.1h-113.1z"/><path fill="#302c450b" stroke-width="3.38" d="M1696.5 226.2h113.1v113.1h-113.1z"/><path fill="none" stroke-width="3.38" d="M1809.6 226.2h113.1v113.1h-113.1zM1922.7 226.2h113.1v113.1h-113.1zM2035.8 226.2h113.1v113.1h-113.1zM2148.9 226.2H2262v113.1h-113.1z"/><path fill="#302c45ce" stroke-width="3.38" d="M2262 226.2h113.1v113.1H2262z"/><path fill="none" stroke-width="3.38" d="M2375.1 226.2h113.1v113.1h-113.1zM2488.2 226.2h113.1v113.1h-113.1z"/><path fill="#302c453b" stroke-width="3.38" d="M0 339.3h113.1v113.1H0z"/><path fill="none" stroke-width="3.38" d="M113.1 339.3h113.1v113.1H113.1zM226.2 339.3h113.1v113.1H226.2z"/><path fill="#302c45aa" stroke-width="3.38" d="M339.3 339.3h113.1v113.1H339.3z"/><path fill="none" stroke-width="3.38" d="M452.4 339.3h113.1v113.1H452.4zM565.5 339.3h113.1v113.1H565.5zM678.6 339.3h113.1v113.1H678.6z"/><path fill="#302c456f" stroke-width="3.38" d="M791.7 339.3h113.1v113.1H791.7z"/><path fill="#302c45ab" stroke-width="3.38" d="M904.8 339.3h113.1v113.1H904.8z"/><path fill="#302c4551" stroke-width="3.38" d="M1017.9 339.3H1131v113.1h-113.1z"/><path fill="none" stroke-width="3.38" d="M1131 339.3h113.1v113.1H1131zM1244.1 339.3h113.1v113.1h-113.1zM1357.2 339.3h113.1v113.1h-113.1z"/><path fill="#302c45c8" stroke-width="3.38" d="M1470.3 339.3h113.1v113.1h-113.1z"/><path fill="none" stroke-width="3.38" d="M1583.4 339.3h113.1v113.1h-113.1zM1696.5 339.3h113.1v113.1h-113.1zM1809.6 339.3h113.1v113.1h-113.1z"/><path fill="#302c4549" stroke-width="3.38" d="M1922.7 339.3h113.1v113.1h-113.1z"/><path fill="none" stroke-width="3.38" d="M2035.8 339.3h113.1v113.1h-113.1zM2148.9 339.3H2262v113.1h-113.1z"/><path fill="#302c457e" stroke-width="3.38" d="M2262 339.3h113.1v113.1H2262z"/><path fill="none" stroke-width="3.38" d="M2375.1 339.3h113.1v113.1h-113.1z"/><path fill="#302c450d" stroke-width="3.38" d="M2488.2 339.3h113.1v113.1h-113.1z"/><path fill="none" stroke-width="3.38" d="M0 452.4h113.1v113.1H0z"/><path fill="#302c45a9" stroke-width="3.38" d="M113.1 452.4h113.1v113.1H113.1z"/><path fill="none" stroke-width="3.38" d="M226.2 452.4h113.1v113.1H226.2zM339.3 452.4h113.1v113.1H339.3z"/><path fill="#302c45b7" stroke-width="3.38" d="M452.4 452.4h113.1v113.1H452.4z"/><path fill="none" stroke-width="3.38" d="M565.5 452.4h113.1v113.1H565.5zM678.6 452.4h113.1v113.1H678.6zM791.7 452.4h113.1v113.1H791.7z"/><path fill="none" stroke-width="3.38" d="M904.8 452.4h113.1v113.1H904.8zM1017.9 452.4H1131v113.1h-113.1z"/><path fill="#302c45a0" stroke-width="3.38" d="M1131 452.4h113.1v113.1H1131z"/><path fill="none" stroke-width="3.38" d="M1244.1 452.4h113.1v113.1h-113.1zM1357.2 452.4h113.1v113.1h-113.1zM1470.3 452.4h113.1v113.1h-113.1zM1583.4 452.4h113.1v113.1h-113.1zM1696.5 452.4h113.1v113.1h-113.1z"/><path fill="#302c45a9" stroke-width="3.38" d="M1809.6 452.4h113.1v113.1h-113.1z"/><path fill="none" stroke-width="3.38" d="M1922.7 452.4h113.1v113.1h-113.1z"/><path fill="#302c4537" stroke-width="3.38" d="M2035.8 452.4h113.1v113.1h-113.1z"/><path fill="none" stroke-width="3.38" d="M2148.9 452.4H2262v113.1h-113.1z"/><path fill="#302c452e" stroke-width="3.38" d="M2262 452.4h113.1v113.1H2262z"/><path fill="#302c457f" stroke-width="3.38" d="M2375.1 452.4h113.1v113.1h-113.1z"/><path fill="none" stroke-width="3.38" d="M2488.2 452.4h113.1v113.1h-113.1zM0 565.5h113.1v113.1H0z"/><path fill="#302c4592" stroke-width="3.38" d="M113.1 565.5h113.1v113.1H113.1z"/><path fill="none" stroke-width="3.38" d="M226.2 565.5h113.1v113.1H226.2zM339.3 565.5h113.1v113.1H339.3zM452.4 565.5h113.1v113.1H452.4zM565.5 565.5h113.1v113.1H565.5zM678.6 565.5h113.1v113.1H678.6z"/><path fill="#302c45bc" stroke-width="3.38" d="M791.7 565.5h113.1v113.1H791.7z"/><path fill="#302c456d" stroke-width="3.38" d="M904.8 565.5h113.1v113.1H904.8z"/><path fill="none" stroke-width="3.38" d="M1017.9 565.5H1131v113.1h-113.1zM1131 565.5h113.1v113.1H1131zM1244.1 565.5h113.1v113.1h-113.1zM1357.2 565.5h113.1v113.1h-113.1zM1470.3 565.5h113.1v113.1h-113.1z"/><path fill="#302c456d" stroke-width="3.38" d="M1583.4 565.5h113.1v113.1h-113.1z"/><path fill="#302c4569" stroke-width="3.38" d="M1696.5 565.5h113.1v113.1h-113.1z"/><path fill="none" stroke-width="3.38" d="M1809.6 565.5h113.1v113.1h-113.1zM1922.7 565.5h113.1v113.1h-113.1zM2035.8 565.5h113.1v113.1h-113.1zM2148.9 565.5H2262v113.1h-113.1z"/><path fill="#302c4546" stroke-width="3.38" d="M2262 565.5h113.1v113.1H2262z"/><path fill="#302c4548" stroke-width="3.38" d="M2375.1 565.5h113.1v113.1h-113.1z"/><path fill="none" stroke-width="3.38" d="M2488.2 565.5h113.1v113.1h-113.1z"/><path fill="#302c4561" stroke-width="3.38" d="M0 678.6h113.1v113.1H0z"/><path fill="#302c4570" stroke-width="3.38" d="M113.1 678.6h113.1v113.1H113.1z"/><path fill="none" stroke-width="3.38" d="M226.2 678.6h113.1v113.1H226.2zM339.3 678.6h113.1v113.1H339.3zM452.4 678.6h113.1v113.1H452.4z"/><path fill="#302c45f5" stroke-width="3.38" d="M565.5 678.6h113.1v113.1H565.5z"/><path fill="#302c45ca" stroke-width="3.38" d="M678.6 678.6h113.1v113.1H678.6z"/><path fill="none" stroke-width="3.38" d="M791.7 678.6h113.1v113.1H791.7z"/><path fill="none" stroke-width="3.38" d="M904.8 678.6h113.1v113.1H904.8z"/><path fill="#302c45de" stroke-width="3.38" d="M1017.9 678.6H1131v113.1h-113.1z"/><path fill="none" stroke-width="3.38" d="M1131 678.6h113.1v113.1H1131zM1244.1 678.6h113.1v113.1h-113.1z"/><path fill="#302c4594" stroke-width="3.38" d="M1357.2 678.6h113.1v113.1h-113.1z"/><path fill="none" stroke-width="3.38" d="M1470.3 678.6h113.1v113.1h-113.1zM1583.4 678.6h113.1v113.1h-113.1z"/><path fill="#302c4574" stroke-width="3.38" d="M1696.5 678.6h113.1v113.1h-113.1z"/><path fill="none" stroke-width="3.38" d="M1809.6 678.6h113.1v113.1h-113.1z"/><path fill="#302c4579" stroke-width="3.38" d="M1922.7 678.6h113.1v113.1h-113.1z"/><path fill="#302c456f" stroke-width="3.38" d="M2035.8 678.6h113.1v113.1h-113.1z"/><path fill="none" stroke-width="3.38" d="M2148.9 678.6H2262v113.1h-113.1zM2262 678.6h113.1v113.1H2262z"/><path fill="#302c454d" stroke-width="3.38" d="M2375.1 678.6h113.1v113.1h-113.1z"/><path fill="none" stroke-width="3.38" d="M2488.2 678.6h113.1v113.1h-113.1zM0 791.7h113.1v113.1H0zM113.1 791.7h113.1v113.1H113.1z"/><path fill="#302c4520" stroke-width="3.38" d="M226.2 791.7h113.1v113.1H226.2z"/><path fill="none" stroke-width="3.38" d="M339.3 791.7h113.1v113.1H339.3zM452.4 791.7h113.1v113.1H452.4z"/><path fill="#302c45e0" stroke-width="3.38" d="M565.5 791.7h113.1v113.1H565.5z"/><path fill="none" stroke-width="3.38" d="M678.6 791.7h113.1v113.1H678.6zM791.7 791.7h113.1v113.1H791.7z"/><path fill="none" stroke-width="3.38" d="M904.8 791.7h113.1v113.1H904.8zM1017.9 791.7H1131v113.1h-113.1z"/><path fill="#302c4528" stroke-width="3.38" d="M1131 791.7h113.1v113.1H1131z"/><path fill="#302c45be" stroke-width="3.38" d="M1244.1 791.7h113.1v113.1h-113.1z"/><path fill="none" stroke-width="3.38" d="M1357.2 791.7h113.1v113.1h-113.1z"/><path fill="#302c45ad" stroke-width="3.38" d="M1470.3 791.7h113.1v113.1h-113.1z"/><path fill="none" stroke-width="3.38" d="M1583.4 791.7h113.1v113.1h-113.1z"/><path fill="#302c4520" stroke-width="3.38" d="M1696.5 791.7h113.1v113.1h-113.1z"/><path fill="none" stroke-width="3.38" d="M1809.6 791.7h113.1v113.1h-113.1zM1922.7 791.7h113.1v113.1h-113.1zM2035.8 791.7h113.1v113.1h-113.1zM2148.9 791.7H2262v113.1h-113.1zM2262 791.7h113.1v113.1H2262zM2375.1 791.7h113.1v113.1h-113.1zM2488.2 791.7h113.1v113.1h-113.1zM0 904.8h113.1v113.1H0zM113.1 904.8h113.1v113.1H113.1zM226.2 904.8h113.1v113.1H226.2zM339.3 904.8h113.1v113.1H339.3zM452.4 904.8h113.1v113.1H452.4z"/><path fill="#302c45c3" stroke-width="3.38" d="M565.5 904.8h113.1v113.1H565.5z"/><path fill="none" stroke-width="3.38" d="M678.6 904.8h113.1v113.1H678.6zM791.7 904.8h113.1v113.1H791.7z"/><path fill="none" stroke-width="3.38" d="M904.8 904.8h113.1v113.1H904.8zM1017.9 904.8H1131v113.1h-113.1zM1131 904.8h113.1v113.1H1131z"/><path fill="#302c454f" stroke-width="3.38" d="M1244.1 904.8h113.1v113.1h-113.1z"/><path fill="none" stroke-width="3.38" d="M1357.2 904.8h113.1v113.1h-113.1zM1470.3 904.8h113.1v113.1h-113.1zM1583.4 904.8h113.1v113.1h-113.1zM1696.5 904.8h113.1v113.1h-113.1z"/><path fill="#302c456c" stroke-width="3.38" d="M1809.6 904.8h113.1v113.1h-113.1z"/><path fill="#302c4553" stroke-width="3.38" d="M1922.7 904.8h113.1v113.1h-113.1z"/><path fill="none" stroke-width="3.38" d="M2035.8 904.8h113.1v113.1h-113.1z"/><path fill="#302c4541" stroke-width="3.38" d="M2148.9 904.8H2262v113.1h-113.1z"/><path fill="none" stroke-width="3.38" d="M2262 904.8h113.1v113.1H2262zM2375.1 904.8h113.1v113.1h-113.1zM2488.2 904.8h113.1v113.1h-113.1zM0 1017.9h113.1V1131H0zM113.1 1017.9h113.1V1131H113.1zM226.2 1017.9h113.1V1131H226.2z"/><path fill="#302c4574" stroke-width="3.38" d="M339.3 1017.9h113.1V1131H339.3z"/><path fill="none" stroke-width="3.38" d="M452.4 1017.9h113.1V1131H452.4zM565.5 1017.9h113.1V1131H565.5zM678.6 1017.9h113.1V1131H678.6z"/><path fill="#302c45eb" stroke-width="3.38" d="M791.7 1017.9h113.1V1131H791.7z"/><path fill="none" stroke-width="3.38" d="M904.8 1017.9h113.1V1131H904.8z"/><path fill="#302c4546" stroke-width="3.38" d="M1017.9 1017.9H1131V1131h-113.1z"/><path fill="none" stroke-width="3.38" d="M1131 1017.9h113.1V1131H1131z"/><path fill="#302c450f" stroke-width="3.38" d="M1244.1 1017.9h113.1V1131h-113.1z"/><path fill="none" stroke-width="3.38" d="M1357.2 1017.9h113.1V1131h-113.1zM1470.3 1017.9h113.1V1131h-113.1zM1583.4 1017.9h113.1V1131h-113.1zM1696.5 1017.9h113.1V1131h-113.1zM1809.6 1017.9h113.1V1131h-113.1z"/><path fill="#302c4568" stroke-width="3.38" d="M1922.7 1017.9h113.1V1131h-113.1z"/><path fill="#302c45c5" stroke-width="3.38" d="M2035.8 1017.9h113.1V1131h-113.1z"/><path fill="none" stroke-width="3.38" d="M2148.9 1017.9H2262V1131h-113.1zM2262 1017.9h113.1V1131H2262zM2375.1 1017.9h113.1V1131h-113.1zM2488.2 1017.9h113.1V1131h-113.1zM0 1131h113.1v113.1H0z"/><path fill="#302c457d" stroke-width="3.38" d="M113.1 1131h113.1v113.1H113.1z"/><path fill="none" stroke-width="3.38" d="M226.2 1131h113.1v113.1H226.2zM339.3 1131h113.1v113.1H339.3zM452.4 1131h113.1v113.1H452.4zM565.5 1131h113.1v113.1H565.5zM678.6 1131h113.1v113.1H678.6zM791.7 1131h113.1v113.1H791.7z"/><path fill="none" stroke-width="3.38" d="M904.8 1131h113.1v113.1H904.8zM1017.9 1131H1131v113.1h-113.1zM1131 1131h113.1v113.1H1131zM1244.1 1131h113.1v113.1h-113.1zM1357.2 1131h113.1v113.1h-113.1zM1470.3 1131h113.1v113.1h-113.1z"/><path fill="#302c4531" stroke-width="3.38" d="M1583.4 1131h113.1v113.1h-113.1z"/><path fill="#302c45f0" stroke-width="3.38" d="M1696.5 1131h113.1v113.1h-113.1z"/><path fill="none" stroke-width="3.38" d="M1809.6 1131h113.1v113.1h-113.1zM1922.7 1131h113.1v113.1h-113.1zM2035.8 1131h113.1v113.1h-113.1zM2148.9 1131H2262v113.1h-113.1z"/><path fill="#302c4509" stroke-width="3.38" d="M2262 1131h113.1v113.1H2262z"/><path fill="#302c45da" stroke-width="3.38" d="M2375.1 1131h113.1v113.1h-113.1z"/><path fill="none" stroke-width="3.38" d="M2488.2 1131h113.1v113.1h-113.1zM0 1244.1h113.1v113.1H0z"/><path fill="#302c4521" stroke-width="3.38" d="M113.1 1244.1h113.1v113.1H113.1z"/><path fill="none" stroke-width="3.38" d="M226.2 1244.1h113.1v113.1H226.2z"/><path fill="#302c45f4" stroke-width="3.38" d="M339.3 1244.1h113.1v113.1H339.3z"/><path fill="#302c4555" stroke-width="3.38" d="M452.4 1244.1h113.1v113.1H452.4z"/><path fill="none" stroke-width="3.38" d="M565.5 1244.1h113.1v113.1H565.5zM678.6 1244.1h113.1v113.1H678.6zM791.7 1244.1h113.1v113.1H791.7z"/><path fill="#302c4538" stroke-width="3.38" d="M904.8 1244.1h113.1v113.1H904.8z"/><path fill="#302c451d" stroke-width="3.38" d="M1017.9 1244.1H1131v113.1h-113.1z"/><path fill="none" stroke-width="3.38" d="M1131 1244.1h113.1v113.1H1131zM1244.1 1244.1h113.1v113.1h-113.1zM1357.2 1244.1h113.1v113.1h-113.1zM1470.3 1244.1h113.1v113.1h-113.1zM1583.4 1244.1h113.1v113.1h-113.1z"/><path fill="#302c45c0" stroke-width="3.38" d="M1696.5 1244.1h113.1v113.1h-113.1z"/><path fill="#302c45a5" stroke-width="3.38" d="M1809.6 1244.1h113.1v113.1h-113.1z"/><path fill="none" stroke-width="3.38" d="M1922.7 1244.1h113.1v113.1h-113.1zM2035.8 1244.1h113.1v113.1h-113.1z"/><path fill="#302c45f6" stroke-width="3.38" d="M2148.9 1244.1H2262v113.1h-113.1z"/><path fill="none" stroke-width="3.38" d="M2262 1244.1h113.1v113.1H2262zM2375.1 1244.1h113.1v113.1h-113.1zM2488.2 1244.1h113.1v113.1h-113.1z"/></g><defs><radialGradient id="a"><stop offset="0" stop-color="#fff"/><stop offset="1" stop-color="#fff" stop-opacity="0"/></radialGradient></defs></svg>